<?xml version="1.0" encoding="iso-8859-1"?>
<!-- Uploaded to: SVG Repo, www.svgrepo.com, Generator: SVG Repo Mixer Tools -->
<svg height="800px" width="800px" version="1.1" id="Layer_1" xmlns="http://www.w3.org/2000/svg" xmlns:xlink="http://www.w3.org/1999/xlink" 
	 viewBox="0 0 512 512" xml:space="preserve">
<g transform="translate(1 1)">
	<polygon style="fill:#FDCC00;" points="255,365.827 451.267,257.453 451.267,84.227 58.733,84.227 58.733,257.453 	"/>
	<g>
		<polygon style="fill:#63D3FD;" points="314.733,332.547 365.933,304.387 365.933,161.027 314.733,161.027 		"/>
		<polygon style="fill:#63D3FD;" points="229.4,351.32 255,365.827 280.6,351.32 280.6,126.893 229.4,126.893 		"/>
		<polygon style="fill:#63D3FD;" points="144.067,304.387 195.267,332.547 195.267,186.627 144.067,186.627 		"/>
	</g>
	<g>
		<path style="fill:#FFE100;" d="M501.613,229.293L255,365.827l244.053,134.827c0,0.853,0,0.853-0.853,1.707h2.56
			c0.853,0,0.853-0.853,0.853-0.853L501.613,229.293C502.467,230.147,502.467,229.293,501.613,229.293"/>
		<polygon style="fill:#FFE100;" points="451.267,181.507 451.267,257.453 255,365.827 58.733,257.453 58.733,181.507 
			7.533,229.293 7.533,502.36 502.467,502.36 502.467,229.293 		"/>
		<path style="fill:#FFE100;" d="M346.307,84.227L270.36,13.4c-8.533-8.533-23.04-8.533-31.573,0l-75.093,70.827H346.307z"/>
	</g>
	<polygon style="fill:#FFA800;" points="451.267,181.507 451.267,186.627 476.867,229.293 476.867,502.36 502.467,502.36 
		502.467,229.293 	"/>
	<polygon style="fill:#FFFFFF;" points="58.733,181.507 58.733,186.627 33.133,229.293 33.133,502.36 7.533,502.36 7.533,229.293 	
		"/>
	<path d="M498.2,510.893H8.387c-5.12,0-9.387-4.267-9.387-9.387v-271.36c0-5.12,4.267-9.387,9.387-9.387c1.707,0,2.56,0,4.267,0.853
		L503.32,492.12c3.413,1.707,5.12,5.973,4.267,9.387l-0.853,1.707C505.88,508.333,502.467,510.893,498.2,510.893z M16.067,493.827
		H470.04L16.067,243.8V493.827z"/>
	<path d="M501.613,510.893h-2.56c-2.56,0-5.12-0.853-6.827-3.413c-0.853-0.853-0.853-1.707-0.853-2.56l-240.64-131.413
		c-2.56-1.707-4.267-4.267-4.267-7.68c0-3.413,1.707-5.973,4.267-7.68l246.613-135.68c0.853-0.853,2.56-0.853,4.267-0.853
		c5.12,0,9.387,4.267,9.387,9.387v271.36C511,506.627,506.733,510.893,501.613,510.893z M272.92,365.827l221.013,122.027V243.8
		L272.92,365.827z"/>
	<path d="M255,374.36c-1.707,0-2.56,0-4.267-0.853L54.467,265.133c-2.56-1.707-4.267-4.267-4.267-7.68V84.227
		c0-5.12,3.413-8.533,8.533-8.533h392.533c5.12,0,8.533,3.413,8.533,8.533v173.227c0,3.413-1.707,5.973-4.267,7.68L259.267,373.507
		C257.56,373.507,256.707,374.36,255,374.36z M67.267,252.333L255,355.587l187.733-103.253V92.76H67.267V252.333z"/>
	<path d="M502.467,510.893H7.533c-5.12,0-8.533-3.413-8.533-8.533V229.293c0-2.56,0.853-4.267,2.56-5.973l51.2-47.787
		c2.56-2.56,5.973-2.56,9.387-1.707c3.413,1.707,5.12,4.267,5.12,7.68v70.827L255,355.587l187.733-103.253v-70.827
		c0-3.413,1.707-6.827,5.12-7.68c3.413-1.707,6.827-0.853,9.387,1.707l51.2,47.787c1.707,1.707,2.56,4.267,2.56,5.973V502.36
		C511,507.48,507.587,510.893,502.467,510.893z M16.067,493.827h477.867v-261.12L459.8,201.133v56.32
		c0,3.413-1.707,5.973-4.267,7.68L259.267,373.507c-2.56,1.707-5.973,1.707-8.533,0L54.467,265.133
		c-2.56-1.707-4.267-4.267-4.267-7.68v-56.32l-34.133,31.573V493.827z"/>
	<path d="M346.307,92.76H163.693c-3.413,0-6.827-2.56-7.68-5.12c-0.853-2.56-0.853-6.827,1.707-9.387l75.947-70.827
		c11.947-11.093,31.573-11.093,43.52,0l75.947,70.827c2.56,2.56,3.413,5.973,1.707,9.387S350.573,92.76,346.307,92.76z
		 M185.027,75.693h139.947L265.24,20.227c-5.12-5.12-14.507-5.12-20.48,0L185.027,75.693z"/>
	<path d="M314.733,341.08c-1.707,0-3.413,0-4.267-0.853c-2.56-1.707-4.267-4.267-4.267-7.68v-171.52c0-5.12,3.413-8.533,8.533-8.533
		h51.2c5.12,0,8.533,3.413,8.533,8.533v143.36c0,3.413-1.707,5.973-4.267,7.68l-51.2,28.16
		C317.293,341.08,316.44,341.08,314.733,341.08z M323.267,169.56v148.48l34.133-18.773V169.56H323.267z"/>
	<path d="M255,374.36c-1.707,0-2.56,0-4.267-0.853L225.133,359c-2.56-1.707-4.267-4.267-4.267-7.68V126.893
		c0-5.12,3.413-8.533,8.533-8.533h51.2c5.12,0,8.533,3.413,8.533,8.533V351.32c0,3.413-1.707,5.973-4.267,7.68l-25.6,14.507
		C257.56,373.507,256.707,374.36,255,374.36z M237.933,346.2L255,355.587l17.067-9.387V135.427h-34.133V346.2z"/>
	<path d="M195.267,341.08c-1.707,0-2.56,0-4.267-0.853l-51.2-28.16c-2.56-1.707-4.267-4.267-4.267-7.68v-117.76
		c0-5.12,3.413-8.533,8.533-8.533h51.2c5.12,0,8.533,3.413,8.533,8.533v145.92c0,3.413-1.707,5.973-4.267,7.68
		C198.68,341.08,196.973,341.08,195.267,341.08z M152.6,299.267l34.133,18.773V195.16H152.6V299.267z"/>
</g>
</svg>